<svg xmlns="http://www.w3.org/2000/svg" viewBox="0 0 28.79 9.36"><defs><style>.cls-1{fill:#010101;}.cls-2{fill:#231f20;}</style></defs><title>Asset 3</title><g id="Layer_2" data-name="Layer 2"><g id="Layer_1-2" data-name="Layer 1"><path class="cls-1" d="M9,3.41a.11.11,0,0,0-.08.14A4.37,4.37,0,0,1,3.45,8.88a.11.11,0,0,0-.06.21,4.59,4.59,0,0,0,5.72-5.6A.11.11,0,0,0,9,3.41Z"/><path class="cls-1" d="M2,8.43l.06,0a.11.11,0,0,0,.06-.2,4.37,4.37,0,0,1-.56-6.66,4.36,4.36,0,0,1,6.17,0,4.43,4.43,0,0,1,.48.56A.11.11,0,1,0,8.42,2a4.65,4.65,0,0,0-.5-.59A4.59,4.59,0,0,0,1.43,7.93,4.66,4.66,0,0,0,2,8.43Z"/><path class="cls-1" d="M7.52.42C8.2.16,8.71.16,8.95.4s.24.83-.08,1.6A10.58,10.58,0,0,1,7.4,4.37a.11.11,0,0,0,0,.16l.07,0a.11.11,0,0,0,.09,0,10.79,10.79,0,0,0,1.5-2.42c.36-.87.37-1.5,0-1.84s-.89-.33-1.67,0a.11.11,0,0,0,.08.21Z"/><path class="cls-1" d="M4.54,7.42a.11.11,0,0,0-.16,0A10.59,10.59,0,0,1,2,8.88C1.23,9.2.67,9.23.4,9s-.24-.75,0-1.44a.11.11,0,1,0-.21-.08c-.29.78-.28,1.36,0,1.67a.94.94,0,0,0,.69.25,3.11,3.11,0,0,0,1.15-.28A10.81,10.81,0,0,0,4.52,7.57.11.11,0,0,0,4.54,7.42Z"/><path class="cls-1" d="M7,5.57a.72.72,0,0,0,.15-.25L7.25,5a.28.28,0,0,0-.34-.36l-.28.08a.72.72,0,0,0-.25.13l-.83.68a.22.22,0,0,1-.16,0l-.7-.07a.27.27,0,0,0-.18,0l-.11.08a.27.27,0,0,0-.07.37l.37.42a.24.24,0,0,0-.09.24A.65.65,0,0,0,4.78,7l.05.05a.65.65,0,0,0,.27.21h.06a.24.24,0,0,0,.18-.09l.39.38h0a.27.27,0,0,0,.37,0l.09-.11a.27.27,0,0,0,.06-.18l0-.71a.22.22,0,0,1,.06-.16ZM5.16,7A.6.6,0,0,1,5,6.9l-.05-.06c-.06-.07-.13-.14-.13-.19l.59-.38.08,0a.14.14,0,0,1,.11.23L5.17,7Zm1-.83A.44.44,0,0,0,6,6.53l0,.71a0,0,0,0,1,0,0l-.09.11a0,0,0,0,1-.06,0L5.48,7l.29-.39a.36.36,0,0,0-.49-.52l-.41.27-.37-.42a0,0,0,0,1,0-.06l.11-.08h0l.7.07a.44.44,0,0,0,.32-.1l.83-.68A.5.5,0,0,1,6.69,5L7,4.9A.06.06,0,0,1,7,5l-.1.28a.5.5,0,0,1-.1.17Z"/><path class="cls-2" d="M13.2,4.45l-.31,0a1.41,1.41,0,0,0-1,.39,2,2,0,0,0-.54,1.1V9h-.24V4.27h.24v1a1.75,1.75,0,0,1,.58-.79,1.57,1.57,0,0,1,1-.29,1,1,0,0,1,.33,0Z"/><path class="cls-2" d="M17.75,6.69a2.93,2.93,0,0,1-.48,1.77,1.53,1.53,0,0,1-1.3.65,2,2,0,0,1-1-.22,1.68,1.68,0,0,1-.66-.62V9h-.24V2.28h.24V5.14A1.76,1.76,0,0,1,15,4.42a1.85,1.85,0,0,1,1-.24,1.55,1.55,0,0,1,1.31.64,2.94,2.94,0,0,1,.48,1.79Zm-.25-.09A2.74,2.74,0,0,0,17.1,5,1.31,1.31,0,0,0,16,4.42a1.65,1.65,0,0,0-1,.31,1.73,1.73,0,0,0-.6.91V7.82a1.56,1.56,0,0,0,.6.78,1.81,1.81,0,0,0,1,.27,1.29,1.29,0,0,0,1.13-.58A3,3,0,0,0,17.51,6.6Z"/><path class="cls-2" d="M19,2.78A.24.24,0,0,1,19,2.61a.23.23,0,0,1,.17-.07.25.25,0,0,1,.25.25.23.23,0,0,1-.07.17.24.24,0,0,1-.17.07A.24.24,0,0,1,19,2.78ZM19.34,9H19.1V4.27h.24Z"/><path class="cls-2" d="M21.43,3V4.27h1.08v.24H21.43V7.89a1.35,1.35,0,0,0,.17.75.62.62,0,0,0,.55.24,3.4,3.4,0,0,0,.47,0l0,.22a1.63,1.63,0,0,1-.5.05.88.88,0,0,1-.74-.29,1.5,1.5,0,0,1-.23-.91V4.51h-.88V4.27h.88V3Z"/><path class="cls-2" d="M26.82,9a3.3,3.3,0,0,1-.09-.87,1.91,1.91,0,0,1-.77.71,2.38,2.38,0,0,1-1.1.25,1.53,1.53,0,0,1-1.06-.36,1.19,1.19,0,0,1-.4-.93,1.2,1.2,0,0,1,.59-1,2.84,2.84,0,0,1,1.57-.4h1.17V5.68a1.17,1.17,0,0,0-.37-.93,1.58,1.58,0,0,0-1.08-.33,1.73,1.73,0,0,0-1.08.33,1,1,0,0,0-.44.83h-.24a1.22,1.22,0,0,1,.51-1,2,2,0,0,1,1.25-.4,1.83,1.83,0,0,1,1.22.38A1.38,1.38,0,0,1,27,5.65V7.92A3,3,0,0,0,27.09,9V9Zm-2-.15A2.13,2.13,0,0,0,26,8.58a1.85,1.85,0,0,0,.72-.84V6.61h-1.1a2.57,2.57,0,0,0-1.56.4,1,1,0,0,0-.44.82.94.94,0,0,0,.35.74A1.29,1.29,0,0,0,24.86,8.88Z"/><path class="cls-2" d="M28.79,9h-.24V2.28h.24Z"/><polygon class="cls-1" points="19.2 1 19.31 2.54 19.85 2.11 19.41 2.67 20.87 2.76 19.42 2.86 19.98 3.52 19.32 3 19.21 4.49 19.11 2.96 18.5 3.46 19.01 2.85 17.46 2.74 19 2.66 18.59 2.14 19.13 2.56 19.2 1"/></g></g></svg>